# xmcd
#
# Track frame offsets:
# 150
# 12759
# 29500
# 40029
# 54030
# 64305
# 76112
# 88043
# 97525
# 110011
# 123733
# 135841
# 150769
# 159748
# 170324
# 181859
# 202758
# 217206
# 236752
# 254449
#
# Disc length: 3572 seconds
#
#
# Revision: 0
# Processed by: cddbd v1.4PL0 Copyright (c) Steve Scherf et al.
# Submitted via: FreeRIP 2.40 
#
DISCID=f40df214
DTITLE=Glen Campbell - Classic Love Songs
DYEAR=2003
DGENRE=Country
TTITLE0=By The Time I Get To Phoenix
TTITLE1=Feelings
TTITLE2=Time In A Bottle
TTITLE3=Without You
TTITLE4=What A Wonderful World
TTITLE5=You Don't Have To Say You Love Me
TTITLE6=The Impossible Dream
TTITLE7=I Believe
TTITLE8=You'll Never Walk Alone
TTITLE9=Make It Easy On Yourself
TTITLE10=Since I Fell For You
TTITLE11=Only Love Can Break A Heart
TTITLE12=Let It Be Me
TTITLE13=Ebb Tide
TTITLE14=It's All In The Game
TTITLE15=Bridge Over Troubled Water
TTITLE16=And I Love You So
TTITLE17=You've Lost That Loving Feeling
TTITLE18=Colleen
TTITLE19=Rhinestone Cowboy
EXTD=
EXTT0=
EXTT1=
EXTT2=
EXTT3=
EXTT4=
EXTT5=
EXTT6=
EXTT7=
EXTT8=
EXTT9=
EXTT10=
EXTT11=
EXTT12=
EXTT13=
EXTT14=
EXTT15=
EXTT16=
EXTT17=
EXTT18=
EXTT19=
PLAYORDER=
